<mxfile host="app.diagrams.net" modified="2024-07-22T11:29:40.158Z" agent="Mozilla/5.0 (Windows NT 10.0; Win64; x64; rv:128.0) Gecko/20100101 Firefox/128.0" etag="9FFLOwvksYhwzZ7t6ZK5" version="24.7.1" type="device">
  <diagram name="Page-1" id="Nqvxpg_46w8gUH--M0_u">
    <mxGraphModel dx="1434" dy="754" grid="1" gridSize="10" guides="1" tooltips="1" connect="1" arrows="1" fold="1" page="1" pageScale="1" pageWidth="827" pageHeight="1169" math="0" shadow="0">
      <root>
        <mxCell id="0" />
        <mxCell id="1" parent="0" />
        <mxCell id="QHkwHp3b83iGKFXgfzwp-1" value="" style="whiteSpace=wrap;html=1;aspect=fixed;dashed=1;fontSize=16;fontFamily=Computer Modern;fontSource=https%3A%2F%2Ffonts.googleapis.com%2Fcss%3Ffamily%3DComputer%2BModern;" vertex="1" parent="1">
          <mxGeometry x="40" y="40" width="280" height="280" as="geometry" />
        </mxCell>
        <mxCell id="QHkwHp3b83iGKFXgfzwp-2" value="" style="rounded=0;whiteSpace=wrap;html=1;fillColor=#d5e8d4;strokeColor=#82b366;fontSize=16;fontFamily=Computer Modern;fontSource=https%3A%2F%2Ffonts.googleapis.com%2Fcss%3Ffamily%3DComputer%2BModern;" vertex="1" parent="1">
          <mxGeometry x="40" y="40" width="80" height="80" as="geometry" />
        </mxCell>
        <mxCell id="QHkwHp3b83iGKFXgfzwp-3" value="" style="rounded=0;whiteSpace=wrap;html=1;fillColor=#d5e8d4;strokeColor=#82b366;fontSize=16;fontFamily=Computer Modern;fontSource=https%3A%2F%2Ffonts.googleapis.com%2Fcss%3Ffamily%3DComputer%2BModern;" vertex="1" parent="1">
          <mxGeometry x="120" y="120" width="80" height="80" as="geometry" />
        </mxCell>
        <mxCell id="QHkwHp3b83iGKFXgfzwp-4" value="" style="rounded=0;whiteSpace=wrap;html=1;fillColor=#d5e8d4;strokeColor=#82b366;fontSize=16;fontFamily=Computer Modern;fontSource=https%3A%2F%2Ffonts.googleapis.com%2Fcss%3Ffamily%3DComputer%2BModern;" vertex="1" parent="1">
          <mxGeometry x="200" y="200" width="80" height="80" as="geometry" />
        </mxCell>
        <mxCell id="QHkwHp3b83iGKFXgfzwp-5" value="" style="rounded=0;whiteSpace=wrap;html=1;fillColor=#d5e8d4;strokeColor=#82b366;fontSize=16;fontFamily=Computer Modern;fontSource=https%3A%2F%2Ffonts.googleapis.com%2Fcss%3Ffamily%3DComputer%2BModern;" vertex="1" parent="1">
          <mxGeometry x="240" y="240" width="80" height="80" as="geometry" />
        </mxCell>
        <mxCell id="QHkwHp3b83iGKFXgfzwp-6" value="&lt;div style=&quot;font-size: 16px;&quot;&gt;&lt;b style=&quot;font-size: 16px;&quot;&gt;Initialization&lt;/b&gt;&lt;/div&gt;" style="text;html=1;align=center;verticalAlign=middle;whiteSpace=wrap;rounded=0;fontSize=16;fontFamily=Computer Modern;fontSource=https%3A%2F%2Ffonts.googleapis.com%2Fcss%3Ffamily%3DComputer%2BModern;" vertex="1" parent="1">
          <mxGeometry x="150" y="20" width="60" height="20" as="geometry" />
        </mxCell>
        <mxCell id="QHkwHp3b83iGKFXgfzwp-7" value="" style="endArrow=classic;html=1;rounded=0;fontSize=16;fontFamily=Computer Modern;fontSource=https%3A%2F%2Ffonts.googleapis.com%2Fcss%3Ffamily%3DComputer%2BModern;" edge="1" parent="1">
          <mxGeometry width="50" height="50" relative="1" as="geometry">
            <mxPoint x="330" y="160" as="sourcePoint" />
            <mxPoint x="390" y="160" as="targetPoint" />
          </mxGeometry>
        </mxCell>
        <mxCell id="QHkwHp3b83iGKFXgfzwp-8" value="" style="whiteSpace=wrap;html=1;aspect=fixed;dashed=1;fontSize=16;fontFamily=Computer Modern;fontSource=https%3A%2F%2Ffonts.googleapis.com%2Fcss%3Ffamily%3DComputer%2BModern;" vertex="1" parent="1">
          <mxGeometry x="400" y="40" width="280" height="280" as="geometry" />
        </mxCell>
        <mxCell id="QHkwHp3b83iGKFXgfzwp-9" value="" style="rounded=0;whiteSpace=wrap;html=1;fillColor=#dae8fc;strokeColor=#6c8ebf;fontSize=16;fontFamily=Computer Modern;fontSource=https%3A%2F%2Ffonts.googleapis.com%2Fcss%3Ffamily%3DComputer%2BModern;" vertex="1" parent="1">
          <mxGeometry x="400" y="40" width="80" height="80" as="geometry" />
        </mxCell>
        <mxCell id="QHkwHp3b83iGKFXgfzwp-10" value="Min PSP" style="rounded=0;whiteSpace=wrap;html=1;fillColor=#dae8fc;strokeColor=#6c8ebf;fontSize=16;fontFamily=Computer Modern;fontSource=https%3A%2F%2Ffonts.googleapis.com%2Fcss%3Ffamily%3DComputer%2BModern;" vertex="1" parent="1">
          <mxGeometry x="480" y="120" width="80" height="80" as="geometry" />
        </mxCell>
        <mxCell id="QHkwHp3b83iGKFXgfzwp-11" value="" style="rounded=0;whiteSpace=wrap;html=1;fillColor=#dae8fc;strokeColor=#6c8ebf;fontSize=16;fontFamily=Computer Modern;fontSource=https%3A%2F%2Ffonts.googleapis.com%2Fcss%3Ffamily%3DComputer%2BModern;" vertex="1" parent="1">
          <mxGeometry x="560" y="200" width="80" height="80" as="geometry" />
        </mxCell>
        <mxCell id="QHkwHp3b83iGKFXgfzwp-12" value="&lt;div&gt;Max PSP&lt;/div&gt;" style="rounded=0;whiteSpace=wrap;html=1;fillColor=#dae8fc;strokeColor=#6c8ebf;fontSize=16;fontFamily=Computer Modern;fontSource=https%3A%2F%2Ffonts.googleapis.com%2Fcss%3Ffamily%3DComputer%2BModern;" vertex="1" parent="1">
          <mxGeometry x="600" y="240" width="80" height="80" as="geometry" />
        </mxCell>
        <mxCell id="QHkwHp3b83iGKFXgfzwp-13" value="" style="rounded=0;whiteSpace=wrap;html=1;fillColor=#d5e8d4;strokeColor=#82b366;fontSize=16;fontFamily=Computer Modern;fontSource=https%3A%2F%2Ffonts.googleapis.com%2Fcss%3Ffamily%3DComputer%2BModern;" vertex="1" parent="1">
          <mxGeometry x="40" y="330" width="30" height="30" as="geometry" />
        </mxCell>
        <mxCell id="QHkwHp3b83iGKFXgfzwp-14" value="&lt;div style=&quot;font-size: 16px;&quot;&gt;New PSP to be calculated&lt;/div&gt;" style="text;html=1;align=center;verticalAlign=middle;whiteSpace=wrap;rounded=0;fontSize=16;fontFamily=Computer Modern;fontSource=https%3A%2F%2Ffonts.googleapis.com%2Fcss%3Ffamily%3DComputer%2BModern;" vertex="1" parent="1">
          <mxGeometry x="100" y="330" width="90" height="30" as="geometry" />
        </mxCell>
        <mxCell id="QHkwHp3b83iGKFXgfzwp-15" value="" style="rounded=0;whiteSpace=wrap;html=1;fillColor=#dae8fc;strokeColor=#6c8ebf;fontSize=16;fontFamily=Computer Modern;fontSource=https%3A%2F%2Ffonts.googleapis.com%2Fcss%3Ffamily%3DComputer%2BModern;" vertex="1" parent="1">
          <mxGeometry x="230" y="330" width="30" height="30" as="geometry" />
        </mxCell>
        <mxCell id="QHkwHp3b83iGKFXgfzwp-16" value="PSP in auxiliary heap" style="text;html=1;align=center;verticalAlign=middle;whiteSpace=wrap;rounded=0;fontSize=16;fontFamily=Computer Modern;fontSource=https%3A%2F%2Ffonts.googleapis.com%2Fcss%3Ffamily%3DComputer%2BModern;" vertex="1" parent="1">
          <mxGeometry x="280" y="330" width="100" height="30" as="geometry" />
        </mxCell>
        <mxCell id="QHkwHp3b83iGKFXgfzwp-18" value="" style="endArrow=none;html=1;rounded=0;fontSize=16;fontFamily=Computer Modern;fontSource=https%3A%2F%2Ffonts.googleapis.com%2Fcss%3Ffamily%3DComputer%2BModern;" edge="1" parent="1">
          <mxGeometry width="50" height="50" relative="1" as="geometry">
            <mxPoint x="80" y="344.5" as="sourcePoint" />
            <mxPoint x="90" y="344.5" as="targetPoint" />
          </mxGeometry>
        </mxCell>
        <mxCell id="QHkwHp3b83iGKFXgfzwp-19" value="" style="endArrow=none;html=1;rounded=0;fontSize=16;fontFamily=Computer Modern;fontSource=https%3A%2F%2Ffonts.googleapis.com%2Fcss%3Ffamily%3DComputer%2BModern;" edge="1" parent="1">
          <mxGeometry width="50" height="50" relative="1" as="geometry">
            <mxPoint x="270" y="344.5" as="sourcePoint" />
            <mxPoint x="280" y="344.5" as="targetPoint" />
          </mxGeometry>
        </mxCell>
        <mxCell id="QHkwHp3b83iGKFXgfzwp-21" value="&lt;div style=&quot;font-size: 16px;&quot;&gt;New Submatrix&lt;/div&gt;" style="rounded=0;whiteSpace=wrap;html=1;fillColor=#d5e8d4;strokeColor=#82b366;fontSize=16;fontFamily=Computer Modern;fontSource=https%3A%2F%2Ffonts.googleapis.com%2Fcss%3Ffamily%3DComputer%2BModern;" vertex="1" parent="1">
          <mxGeometry x="600" y="120" width="80" height="80" as="geometry" />
        </mxCell>
        <mxCell id="QHkwHp3b83iGKFXgfzwp-22" value="" style="whiteSpace=wrap;html=1;aspect=fixed;dashed=1;fontSize=16;fontFamily=Computer Modern;fontSource=https%3A%2F%2Ffonts.googleapis.com%2Fcss%3Ffamily%3DComputer%2BModern;" vertex="1" parent="1">
          <mxGeometry x="760" y="40" width="280" height="280" as="geometry" />
        </mxCell>
        <mxCell id="QHkwHp3b83iGKFXgfzwp-23" value="" style="rounded=0;whiteSpace=wrap;html=1;fillColor=#d5e8d4;strokeColor=#82b366;fontSize=16;fontFamily=Computer Modern;fontSource=https%3A%2F%2Ffonts.googleapis.com%2Fcss%3Ffamily%3DComputer%2BModern;" vertex="1" parent="1">
          <mxGeometry x="760" y="40" width="80" height="80" as="geometry" />
        </mxCell>
        <mxCell id="QHkwHp3b83iGKFXgfzwp-24" value="" style="rounded=0;whiteSpace=wrap;html=1;fillColor=#d5e8d4;strokeColor=#82b366;fontSize=16;fontFamily=Computer Modern;fontSource=https%3A%2F%2Ffonts.googleapis.com%2Fcss%3Ffamily%3DComputer%2BModern;" vertex="1" parent="1">
          <mxGeometry x="840" y="120" width="80" height="80" as="geometry" />
        </mxCell>
        <mxCell id="QHkwHp3b83iGKFXgfzwp-25" value="" style="rounded=0;whiteSpace=wrap;html=1;fillColor=#d5e8d4;strokeColor=#82b366;fontSize=16;fontFamily=Computer Modern;fontSource=https%3A%2F%2Ffonts.googleapis.com%2Fcss%3Ffamily%3DComputer%2BModern;" vertex="1" parent="1">
          <mxGeometry x="920" y="200" width="80" height="80" as="geometry" />
        </mxCell>
        <mxCell id="QHkwHp3b83iGKFXgfzwp-26" value="" style="rounded=0;whiteSpace=wrap;html=1;fillColor=#d5e8d4;strokeColor=#82b366;fontSize=16;fontFamily=Computer Modern;fontSource=https%3A%2F%2Ffonts.googleapis.com%2Fcss%3Ffamily%3DComputer%2BModern;" vertex="1" parent="1">
          <mxGeometry x="960" y="240" width="80" height="80" as="geometry" />
        </mxCell>
        <mxCell id="QHkwHp3b83iGKFXgfzwp-27" value="&lt;div style=&quot;font-size: 16px;&quot;&gt;&lt;b style=&quot;font-size: 16px;&quot;&gt;Initialization&lt;/b&gt;&lt;/div&gt;" style="text;html=1;align=center;verticalAlign=middle;whiteSpace=wrap;rounded=0;fontSize=16;fontFamily=Computer Modern;fontSource=https%3A%2F%2Ffonts.googleapis.com%2Fcss%3Ffamily%3DComputer%2BModern;" vertex="1" parent="1">
          <mxGeometry x="870" y="20" width="60" height="20" as="geometry" />
        </mxCell>
        <mxCell id="QHkwHp3b83iGKFXgfzwp-28" value="" style="endArrow=classic;html=1;rounded=0;fontSize=16;fontFamily=Computer Modern;fontSource=https%3A%2F%2Ffonts.googleapis.com%2Fcss%3Ffamily%3DComputer%2BModern;" edge="1" parent="1">
          <mxGeometry width="50" height="50" relative="1" as="geometry">
            <mxPoint x="1050" y="160" as="sourcePoint" />
            <mxPoint x="1110" y="160" as="targetPoint" />
          </mxGeometry>
        </mxCell>
        <mxCell id="QHkwHp3b83iGKFXgfzwp-29" value="" style="whiteSpace=wrap;html=1;aspect=fixed;dashed=1;fontSize=16;fontFamily=Computer Modern;fontSource=https%3A%2F%2Ffonts.googleapis.com%2Fcss%3Ffamily%3DComputer%2BModern;" vertex="1" parent="1">
          <mxGeometry x="1120" y="40" width="280" height="280" as="geometry" />
        </mxCell>
        <mxCell id="QHkwHp3b83iGKFXgfzwp-30" value="" style="rounded=0;whiteSpace=wrap;html=1;fillColor=#dae8fc;strokeColor=#6c8ebf;fontSize=16;fontFamily=Computer Modern;fontSource=https%3A%2F%2Ffonts.googleapis.com%2Fcss%3Ffamily%3DComputer%2BModern;" vertex="1" parent="1">
          <mxGeometry x="1120" y="40" width="80" height="80" as="geometry" />
        </mxCell>
        <mxCell id="QHkwHp3b83iGKFXgfzwp-31" value="" style="rounded=0;whiteSpace=wrap;html=1;fillColor=#dae8fc;strokeColor=#6c8ebf;fontSize=16;fontFamily=Computer Modern;fontSource=https%3A%2F%2Ffonts.googleapis.com%2Fcss%3Ffamily%3DComputer%2BModern;" vertex="1" parent="1">
          <mxGeometry x="1200" y="120" width="80" height="80" as="geometry" />
        </mxCell>
        <mxCell id="QHkwHp3b83iGKFXgfzwp-32" value="&lt;div style=&quot;font-size: 16px;&quot;&gt;Max&lt;/div&gt;&lt;div style=&quot;font-size: 16px;&quot;&gt;&lt;br style=&quot;font-size: 16px;&quot;&gt;&lt;/div&gt;&lt;div style=&quot;font-size: 16px;&quot;&gt;&lt;br style=&quot;font-size: 16px;&quot;&gt;&lt;/div&gt;" style="rounded=0;whiteSpace=wrap;html=1;fillColor=#dae8fc;strokeColor=#6c8ebf;fontSize=16;fontFamily=Computer Modern;fontSource=https%3A%2F%2Ffonts.googleapis.com%2Fcss%3Ffamily%3DComputer%2BModern;" vertex="1" parent="1">
          <mxGeometry x="1280" y="200" width="80" height="80" as="geometry" />
        </mxCell>
        <mxCell id="QHkwHp3b83iGKFXgfzwp-33" value="&lt;div style=&quot;font-size: 16px;&quot;&gt;&amp;nbsp;&amp;nbsp;&amp;nbsp;&amp;nbsp;&amp;nbsp;&amp;nbsp;&amp;nbsp;&amp;nbsp;&amp;nbsp; Min&lt;/div&gt;&lt;div style=&quot;font-size: 16px;&quot;&gt;&lt;br style=&quot;font-size: 16px;&quot;&gt;&lt;/div&gt;&lt;div style=&quot;font-size: 16px;&quot;&gt;&lt;br style=&quot;font-size: 16px;&quot;&gt;&lt;/div&gt;" style="rounded=0;whiteSpace=wrap;html=1;fillColor=#dae8fc;strokeColor=#6c8ebf;fontSize=16;fontFamily=Computer Modern;fontSource=https%3A%2F%2Ffonts.googleapis.com%2Fcss%3Ffamily%3DComputer%2BModern;" vertex="1" parent="1">
          <mxGeometry x="1320" y="240" width="80" height="80" as="geometry" />
        </mxCell>
        <mxCell id="QHkwHp3b83iGKFXgfzwp-34" value="" style="rounded=0;whiteSpace=wrap;html=1;fillColor=#d5e8d4;strokeColor=#82b366;fontSize=16;fontFamily=Computer Modern;fontSource=https%3A%2F%2Ffonts.googleapis.com%2Fcss%3Ffamily%3DComputer%2BModern;" vertex="1" parent="1">
          <mxGeometry x="760" y="330" width="30" height="30" as="geometry" />
        </mxCell>
        <mxCell id="QHkwHp3b83iGKFXgfzwp-35" value="&lt;div style=&quot;font-size: 16px;&quot;&gt;New PSP to be calculated&lt;/div&gt;" style="text;html=1;align=center;verticalAlign=middle;whiteSpace=wrap;rounded=0;fontSize=16;fontFamily=Computer Modern;fontSource=https%3A%2F%2Ffonts.googleapis.com%2Fcss%3Ffamily%3DComputer%2BModern;" vertex="1" parent="1">
          <mxGeometry x="820" y="330" width="90" height="30" as="geometry" />
        </mxCell>
        <mxCell id="QHkwHp3b83iGKFXgfzwp-36" value="" style="rounded=0;whiteSpace=wrap;html=1;fillColor=#dae8fc;strokeColor=#6c8ebf;fontSize=16;fontFamily=Computer Modern;fontSource=https%3A%2F%2Ffonts.googleapis.com%2Fcss%3Ffamily%3DComputer%2BModern;" vertex="1" parent="1">
          <mxGeometry x="950" y="330" width="30" height="30" as="geometry" />
        </mxCell>
        <mxCell id="QHkwHp3b83iGKFXgfzwp-37" value="PSP in auxiliary heap" style="text;html=1;align=center;verticalAlign=middle;whiteSpace=wrap;rounded=0;fontSize=16;fontFamily=Computer Modern;fontSource=https%3A%2F%2Ffonts.googleapis.com%2Fcss%3Ffamily%3DComputer%2BModern;" vertex="1" parent="1">
          <mxGeometry x="1000" y="330" width="100" height="30" as="geometry" />
        </mxCell>
        <mxCell id="QHkwHp3b83iGKFXgfzwp-38" value="" style="endArrow=none;html=1;rounded=0;fontSize=16;fontFamily=Computer Modern;fontSource=https%3A%2F%2Ffonts.googleapis.com%2Fcss%3Ffamily%3DComputer%2BModern;" edge="1" parent="1">
          <mxGeometry width="50" height="50" relative="1" as="geometry">
            <mxPoint x="800" y="344.5" as="sourcePoint" />
            <mxPoint x="810" y="344.5" as="targetPoint" />
          </mxGeometry>
        </mxCell>
        <mxCell id="QHkwHp3b83iGKFXgfzwp-39" value="" style="endArrow=none;html=1;rounded=0;fontSize=16;fontFamily=Computer Modern;fontSource=https%3A%2F%2Ffonts.googleapis.com%2Fcss%3Ffamily%3DComputer%2BModern;" edge="1" parent="1">
          <mxGeometry width="50" height="50" relative="1" as="geometry">
            <mxPoint x="990" y="344.5" as="sourcePoint" />
            <mxPoint x="1000" y="344.5" as="targetPoint" />
          </mxGeometry>
        </mxCell>
        <mxCell id="QHkwHp3b83iGKFXgfzwp-40" value="&lt;div style=&quot;font-size: 16px;&quot;&gt;New Submatrix&lt;/div&gt;" style="rounded=0;whiteSpace=wrap;html=1;fillColor=#d5e8d4;strokeColor=#82b366;opacity=80;fontSize=16;fontFamily=Computer Modern;fontSource=https%3A%2F%2Ffonts.googleapis.com%2Fcss%3Ffamily%3DComputer%2BModern;" vertex="1" parent="1">
          <mxGeometry x="1280" y="240" width="80" height="80" as="geometry" />
        </mxCell>
      </root>
    </mxGraphModel>
  </diagram>
</mxfile>
